<?xml version="1.0" encoding="iso-8859-1"?>
<!-- Generator: Adobe Illustrator 17.0.1, SVG Export Plug-In . SVG Version: 6.00 Build 0)  -->
<!DOCTYPE svg PUBLIC "-//W3C//DTD SVG 1.1//EN" "http://www.w3.org/Graphics/SVG/1.1/DTD/svg11.dtd">
<svg version="1.1" id="Layer_1" xmlns="http://www.w3.org/2000/svg" xmlns:xlink="http://www.w3.org/1999/xlink" x="0px" y="0px"
	 width="126.667px" height="121.333px" viewBox="0 0 126.667 121.333" style="enable-background:new 0 0 126.667 121.333;"
	 xml:space="preserve">
<g>
	<g>
		<g>
			<g>
				<path style="fill:#858484;" d="M50.749,98.673c-5.244,0-9.511-4.267-9.511-9.511V50.377c0-1.423,1.158-2.581,2.581-2.581
					c1.423,0,2.58,1.158,2.58,2.581v38.785c0,2.398,1.951,4.35,4.35,4.35h25.168c2.398,0,4.35-1.951,4.35-4.35V50.377
					c0-1.423,1.158-2.581,2.581-2.581s2.58,1.158,2.58,2.581v38.785c0,5.244-4.267,9.511-9.511,9.511H50.749z"/>
			</g>
			<g>
				<path style="fill:#858484;" d="M71.029,82.283c-0.574,0-1.112-0.223-1.517-0.628l-6.18-6.18l-6.18,6.18
					c-0.405,0.405-0.943,0.627-1.516,0.627s-1.11-0.223-1.515-0.626c-0.836-0.837-0.836-2.196-0.001-3.032l6.181-6.181l-6.181-6.18
					c-0.835-0.836-0.835-2.195,0-3.031c0.404-0.405,0.943-0.628,1.516-0.628s1.111,0.223,1.516,0.628l6.18,6.18l6.181-6.18
					c0.404-0.405,0.942-0.628,1.515-0.628c0.573,0,1.111,0.223,1.516,0.628c0.405,0.405,0.629,0.943,0.629,1.516
					s-0.224,1.111-0.629,1.516l-6.18,6.179l6.18,6.18c0.405,0.404,0.629,0.943,0.629,1.516s-0.224,1.111-0.629,1.516
					C72.141,82.06,71.603,82.283,71.029,82.283z"/>
			</g>
			<g>
				<g>
					<path style="fill:#858484;" d="M35.466,45.991c-0.69,0-1.338-0.269-1.826-0.756c-0.487-0.487-0.756-1.136-0.755-1.825
						l0.001-4.923c0-2.138,1.139-4.172,3.123-5.581c1.745-1.239,4.013-1.922,6.387-1.922l20.906,0.005l20.898-0.12
						c2.419,0,4.667,0.67,6.399,1.887c1.992,1.398,3.142,3.426,3.154,5.563l0.028,4.924c0.008,1.423-1.144,2.587-2.566,2.596
						c-1.43,0-2.587-1.151-2.595-2.566l-0.028-4.923c-0.006-1.05-1.937-2.319-4.325-2.319l-19.526,0.112v0.007l-2.861,0.01V36.15
						l-19.483-0.005c-2.409,0-4.35,1.282-4.35,2.343l-0.001,4.924C38.045,44.834,36.888,45.991,35.466,45.991z"/>
				</g>
				<g>
					<path style="fill:none;stroke:#858484;stroke-width:2.5;stroke-miterlimit:10;" d="M71.783,30.077h-2
						c0-2.189-2.954-4.039-6.45-4.039s-6.449,1.85-6.449,4.039h-2c0-3.386,3.711-6.039,8.449-6.039S71.783,26.691,71.783,30.077z"/>
				</g>
			</g>
		</g>
	</g>
</g>
</svg>
